<svg width="70" height="53" viewBox="0 0 70 53" fill="none" xmlns="http://www.w3.org/2000/svg">
<path d="M70 48.0433V13.3468C70 7.27082 70 4.45341 70 2.89732C70 1.82343 69.1294 0.955222 68.0556 0.955222L64.1667 7.15092L60.2778 0.955222L56.3889 7.15092L52.5 0.955222L48.6111 7.15092L44.7222 0.955222L40.8333 7.15092L36.9444 0.955222L33.0556 7.15092L29.1667 0.955222L25.2778 7.15092L21.3889 0.955222L17.5 7.15092L11.6667 0.95521L5.83336 7.15098C3.8889 -2.76222 0 -2.76225 0 9.62941L1.95867e-05 48.0433C1.95867e-05 50.7769 3.48835 53 7.7778 53H62.2222C66.5117 53 70 50.7769 70 48.0433ZM31.1111 43.0867H7.7778V33.1734H31.1111V35.6517V43.0867ZM31.1111 33.1734H7.7778V28.2167H31.1111V33.1734ZM38.8889 43.0867H31.1111V33.1734H38.8889V43.0867ZM38.8889 33.1734H31.1111V28.2167H38.8889V33.1734ZM61.3198 43.0867H42.7778V38.13H61.3198V43.0867ZM61.5343 33.1734H42.7778V28.2167H61.5343V33.1734ZM62.2222 20.7817H7.7778V15.8251H62.2222V20.7817Z" fill="#2563EB"/>
</svg>
